# Blender v2.93.3 OBJ File: ''
# www.blender.org
mtllib signboard.mtl
o Cube
v 0.253789 0.967621 -0.311774
v 0.253789 -0.967621 -0.311774
v 0.253789 0.967621 0.311774
v 0.253789 -0.967621 0.311774
v -0.253789 0.967621 -0.311774
v -0.253789 -0.967621 -0.311774
v -0.253789 0.967621 0.311774
v -0.253789 -0.967621 0.311774
v 0.253789 0.967621 2.280770
v -0.253789 0.967621 2.280770
v 0.253789 4.204640 2.280770
v -0.253789 4.204640 2.280770
v 0.253789 0.967621 -2.321042
v -0.253789 0.967621 -2.321042
v 0.253789 4.204640 -2.321042
v -0.253789 4.204640 -2.321042
vt 0.209069 0.532608
vt 0.156802 0.735363
vt 0.156802 0.532608
vt 0.261336 0.731887
vt 0.209069 0.532608
vt 0.261336 0.532608
vt 0.271111 0.199279
vt 0.206902 0.000000
vt 0.271111 0.000000
vt 0.365871 0.532608
vt 0.313603 0.596817
vt 0.313603 0.532608
vt 0.740831 0.199279
vt 0.676622 0.000000
vt 0.740831 0.000000
vt 0.313603 0.731887
vt 0.261336 0.532608
vt 0.104535 0.532608
vt 0.052267 0.865936
vt 0.052267 0.532608
vt 0.473866 0.532608
vt 0.000000 0.532608
vt 0.206902 0.199279
vt 0.052267 0.532608
vt 0.000000 0.865936
vt 0.000000 0.532608
vt 0.947733 0.473866
vt 1.000000 0.000000
vt 1.000000 0.473866
vt 0.104535 0.739510
vt 0.156802 0.532608
vt 0.156802 0.739510
vt 0.947733 0.199279
vt 0.947733 0.532608
vt 0.209069 0.735363
vt 0.209069 0.731887
vt 0.365871 0.596817
vt 0.676622 0.199279
vt 0.261336 0.731887
vt 0.104534 0.865936
vt 0.000000 0.199279
vt 0.473866 0.199279
vt 0.052267 0.865936
vt 0.947733 0.000000
vt 0.104535 0.532608
vt 0.473866 0.199279
vt 0.473866 0.532608
vn 0.0000 -1.0000 0.0000
vn 0.0000 0.0000 1.0000
vn -1.0000 0.0000 0.0000
vn 1.0000 0.0000 0.0000
vn 0.0000 0.0000 -1.0000
vn 0.0000 1.0000 0.0000
usemtl Material
s off
f 3/1/1 10/2/1 7/3/1
f 3/4/2 8/5/2 4/6/2
f 7/7/3 6/8/3 8/9/3
f 2/10/1 8/11/1 6/12/1
f 1/13/4 4/14/4 2/15/4
f 5/16/5 2/17/5 6/12/5
f 9/18/2 12/19/2 10/20/2
f 12/21/3 16/22/3 5/23/3
f 14/24/5 15/25/5 13/26/5
f 11/27/6 16/28/6 12/29/6
f 5/30/1 13/31/1 1/32/1
f 1/13/4 13/33/4 15/34/4
f 3/1/1 9/35/1 10/2/1
f 3/4/2 7/36/2 8/5/2
f 7/7/3 5/23/3 6/8/3
f 2/10/1 4/37/1 8/11/1
f 1/13/4 3/38/4 4/14/4
f 5/16/5 1/39/5 2/17/5
f 9/18/2 11/40/2 12/19/2
f 14/41/3 5/23/3 16/22/3
f 5/23/3 7/7/3 12/21/3
f 7/7/3 10/42/3 12/21/3
f 14/24/5 16/43/5 15/25/5
f 11/27/6 15/44/6 16/28/6
f 5/30/1 14/45/1 13/31/1
f 9/46/4 3/38/4 11/47/4
f 3/38/4 1/13/4 11/47/4
f 11/47/4 1/13/4 15/34/4
